<svg viewBox="0 0 48 30.05" xmlns:xlink="http://www.w3.org/1999/xlink" xmlns="http://www.w3.org/2000/svg" aria-hidden="true" role="presentation" focusable="false"><g aria-hidden="true" role="presentation"><path d="M49,33.45a5.58,5.58,0,0,0-5.55-5.6,5,5,0,0,0-.68,0,15.19,15.19,0,0,0,.53-4,14.8,14.8,0,0,0-28.86-4.75,9.93,9.93,0,0,0-3.31-.57,10.22,10.22,0,0,0,0,20.43H43.9v0A5.58,5.58,0,0,0,49,33.45" transform="translate(-1 -9)" style="fill: #59B4D9" aria-hidden="true" role="presentation"></path><path d="M16.5,39.05a10.22,10.22,0,0,1,4.82-17.21,9.92,9.92,0,0,1,3.35-.18,14.88,14.88,0,0,1,8.3-12,14.76,14.76,0,0,0-18.54,9.49,9.93,9.93,0,0,0-3.31-.57,10.22,10.22,0,0,0,0,20.43H16.5Z" transform="translate(-1 -9)" opacity="0.2" style="fill: #FFF" aria-hidden="true" role="presentation"></path><g id="square" aria-hidden="true" role="presentation"><rect width="6" height="6" x="6.75" y="21.01" rx="1" ry="1" opacity="0.8" style="fill: #FFF" aria-hidden="true" role="presentation"></rect></g><g id="square-2" aria-hidden="true" role="presentation"><rect width="6" height="6" x="14.75" y="21.01" rx="1" ry="1" opacity="0.8" style="fill: #FFF" aria-hidden="true" role="presentation"></rect></g><g id="square-3" aria-hidden="true" role="presentation"><rect width="6" height="6" x="22.75" y="21.01" rx="1" ry="1" opacity="0.8" style="fill: #FFF" aria-hidden="true" role="presentation"></rect></g><g id="square-4" aria-hidden="true" role="presentation"><rect width="6" height="6" x="30.75" y="21.01" rx="1" ry="1" opacity="0.8" style="fill: #FFF" aria-hidden="true" role="presentation"></rect></g><g id="square-5" opacity="0.6" aria-hidden="true" role="presentation"><rect width="6" height="6" x="14.75" y="13.01" rx="1" ry="1" style="fill: #FFF" aria-hidden="true" role="presentation"></rect></g><g id="square-6" opacity="0.6" aria-hidden="true" role="presentation"><rect width="6" height="6" x="22.75" y="13.01" rx="1" ry="1" style="fill: #FFF" aria-hidden="true" role="presentation"></rect></g><g id="square-7" opacity="0.6" aria-hidden="true" role="presentation"><rect width="6" height="6" x="30.75" y="13.01" rx="1" ry="1" style="fill: #FFF" aria-hidden="true" role="presentation"></rect></g><g id="square-8" opacity="0.5" aria-hidden="true" role="presentation"><rect width="6" height="6" x="22.75" y="5.01" rx="1" ry="1" style="fill: #FFF" aria-hidden="true" role="presentation"></rect></g></g></svg>
